<?xml version="1.0" encoding="utf-8"?>
<!-- Generator: Adobe Illustrator 16.0.0, SVG Export Plug-In . SVG Version: 6.00 Build 0)  -->
<!DOCTYPE svg PUBLIC "-//W3C//DTD SVG 1.1//EN" "http://www.w3.org/Graphics/SVG/1.1/DTD/svg11.dtd">
<svg version="1.1" id="Camada_1" xmlns="http://www.w3.org/2000/svg" xmlns:xlink="http://www.w3.org/1999/xlink" x="0px" y="0px"
	 width="48px" height="48px" viewBox="0 0 48 48" enable-background="new 0 0 48 48" xml:space="preserve">
<path fill="#DDDDDD" d="M13.461,38.545c-0.461-0.494-0.7-1.074-0.716-1.738c-0.017-0.666,0.222-1.246,0.716-1.74l15.41-15.41
	L13.461,4.246C13,3.785,12.756,3.213,12.73,2.532c-0.026-0.682,0.208-1.271,0.702-1.765C13.894,0.273,14.47,0.018,15.161,0
	c0.691-0.016,1.275,0.223,1.75,0.717l17.578,17.55c0.204,0.204,0.354,0.423,0.448,0.655c0.096,0.232,0.143,0.478,0.143,0.734
	c0,0.256-0.047,0.501-0.143,0.733c-0.094,0.232-0.244,0.451-0.448,0.655l-17.55,17.55c-0.46,0.461-1.032,0.691-1.714,0.691
	C14.543,39.287,13.955,39.039,13.461,38.545z"/>
</svg>
