<?xml version="1.0" encoding="utf-8"?>
<!-- Generator: Adobe Illustrator 16.0.0, SVG Export Plug-In . SVG Version: 6.00 Build 0)  -->
<!DOCTYPE svg PUBLIC "-//W3C//DTD SVG 1.1//EN" "http://www.w3.org/Graphics/SVG/1.1/DTD/svg11.dtd">
<svg version="1.1" id="Layer_1" xmlns="http://www.w3.org/2000/svg" xmlns:xlink="http://www.w3.org/1999/xlink" x="0px" y="0px"
	 width="253.310px" height="358.251px" viewBox="0 0 595.279 841.89" enable-background="new 0 0 595.279 841.89"
	 xml:space="preserve">
<path fill="#00105C" d="M29.996,286.119c-10.001-4.554-18.642-8.056-25.686-10.703c-1.479-11.091-2.568-22.223-3.229-33.353
	c-0.545-9.224-0.195-18.252,0.856-27.164c0.701-5.604,1.712-11.131,2.958-16.579l0.039-0.039
	c17.591-76.279,87.76-138.548,125.86-152.364c-1.985,1.246-66.666,41.059-93.286,121.892c-12.221,10.041-21.95,19.381-29.227,26.931
	c7.277-7.549,17.045-16.851,29.227-26.892c-5.138,15.646-8.913,32.847-10.47,51.567c-1.05,12.609-1.167,25.919,0,39.929
	C27.739,268.333,28.712,277.245,29.996,286.119L29.996,286.119z M182.009,637.041c37.05,44.406,67.445,73.594,69.002,75.073
	c-1.635-2.022-35.105-43.16-66.434-86.319l0,0c-10.196-14.011-20.16-28.255-28.721-41.448
	c-12.298-18.875-30.045-46.273-48.569-79.977c-31.719-57.832-65.577-134.267-77.331-218.251
	c-9.962-4.554-18.603-8.056-25.647-10.703c10.158,75.268,38.958,149.171,84.452,228.449l0,0c4.864,8.522,9.924,17.045,15.178,25.684
	c24.519,40.204,52.851,77.331,78.069,107.531V637.041z M184.306,626.805c-0.779,3.191-1.479,6.345-2.141,9.38
	C182.827,633.15,183.527,629.997,184.306,626.805L184.306,626.805z M188.43,611.083c24.596,36.506,50.477,65.5,85.893,102.238
	c-8.251-9.458-40.203-64.994-72.816-139.989v-0.038c-9.223-21.132-18.446-43.822-27.242-67.445
	c-19.108-51.37-36.077-107.219-45.574-161.47l-0.038-0.039c-6.188-35.454-9.224-70.285-7.589-102.626l0,0
	c0.039-1.168,0.117-2.375,0.194-3.503c3.658-59.895,18.213-104.767,36.349-138.042l0,0l0,0c4.515-8.29,9.263-15.879,14.128-22.767
	l0,0c35.959-51.372,78.069-66.317,80.209-67.056l0,0c-34.987,7.005-72.466,24.246-105.273,49.854l0,0
	c-26.27,20.549-49.542,46.429-66.122,76.824l0,0c-14.01,25.569-23.273,54.368-25.647,85.775c-0.039,0.778-0.117,1.557-0.156,2.374
	c1.712,0.389,3.425,0.778,5.176,1.167c-1.751-0.39-3.464-0.779-5.176-1.167c-1.557,24.206,0.195,49.659,4.398,75.306
	c4.826,2.568,9.807,5.332,14.944,8.289c-5.137-2.918-10.118-5.682-14.944-8.25c11.792,73.01,42.849,148.2,69.974,204.279l0,0
	c8.601,17.748,16.813,33.625,23.857,46.858C165.079,574.266,176.561,593.531,188.43,611.083L188.43,611.083L188.43,611.083z
	 M232.369,512.583c22.495,105.155,53.317,201.555,53.317,201.555h24.285c0,0,15.646-48.958,32.808-115.157l0,0
	c7.084-27.399,14.439-57.756,21.055-88.851c4.242-20.042,8.174-40.397,11.56-60.401c4.708-27.981,8.64-55.885,11.636-83.4l0,0
	c0.312-2.841,0.623-5.682,0.856-8.446c6.538-62.852,8.095-123.174,2.84-176.258l0,0c-2.489-25.647-6.614-49.582-12.491-71.298
	c-3.308-12.182-7.2-22.845-11.48-32.301c-34.443-2.802-70.598-3.27-106.83,0.039c36.232-3.348,72.387-2.88,106.83-0.039
	c-26.815-59.117-68.301-67.718-68.301-67.718h-1.246c0,0-43.472,9.029-70.169,71.998l0,0c-3.192,7.356-6.032,15.451-8.601,24.363
	l0,0l0,0c-0.35,1.206-0.7,2.413-1.012,3.658c-12.103,44.522-16.657,98.306-15.489,156.801l185.95,90.755
	c-0.896-0.621-1.829-1.245-2.724-1.867c-0.935-0.584-1.83-1.207-2.764-1.79c-0.896-0.624-1.83-1.246-2.763-1.831
	c-0.896-0.584-1.829-1.207-2.764-1.791c-0.935-0.621-1.867-1.206-2.763-1.79c-0.935-0.584-1.868-1.168-2.803-1.751
	c-0.935-0.623-1.868-1.207-2.802-1.791c-0.935-0.583-1.868-1.127-2.842-1.711c-0.935-0.584-1.867-1.168-2.802-1.752
	c-0.934-0.544-1.867-1.128-2.841-1.712l0,0c-0.934-0.544-1.868-1.129-2.842-1.673c-0.933-0.584-1.867-1.129-2.84-1.713l0,0
	c-0.935-0.544-1.907-1.089-2.842-1.673c-0.973-0.545-1.907-1.089-2.88-1.634l0,0c-0.933-0.545-1.907-1.09-2.881-1.635l0,0
	c-0.932-0.544-1.906-1.09-2.88-1.635c-0.933-0.544-1.906-1.089-2.878-1.634c-0.935-0.545-1.908-1.05-2.881-1.596
	c-0.973-0.545-1.946-1.051-2.919-1.595l0,0c-0.934-0.506-1.907-1.051-2.88-1.557c-0.973-0.545-1.945-1.051-2.919-1.558l0,0
	c-0.973-0.544-1.946-1.05-2.919-1.557c-0.972-0.505-1.945-1.011-2.917-1.557c-0.975-0.506-1.947-1.012-2.921-1.518l0,0
	c-0.972-0.506-1.945-1.012-2.917-1.479l0,0c-1.013-0.506-1.986-1.012-2.959-1.518l0,0c-0.972-0.507-1.946-0.974-2.92-1.479l0,0
	c-0.972-0.506-1.984-0.973-2.957-1.479l0,0c-0.973-0.467-1.945-0.973-2.958-1.44l0,0c-0.972-0.467-1.945-0.973-2.918-1.44l0,0
	c-1.012-0.468-1.985-0.973-2.958-1.44c-1.012-0.468-1.985-0.934-2.958-1.401l0,0c-0.973-0.467-1.985-0.934-2.958-1.401l0,0
	c-0.973-0.468-1.984-0.934-2.958-1.401l0,0c-0.973-0.467-1.985-0.934-2.958-1.362l0,0c-1.01-0.467-1.984-0.935-2.958-1.401l0,0
	c-1.01-0.428-1.985-0.895-2.958-1.323l0,0c-1.01-0.467-1.984-0.896-2.996-1.362l0,0c-0.973-0.428-1.946-0.857-2.958-1.323l0,0
	c-0.973-0.428-1.946-0.856-2.958-1.323l0,0c-0.973-0.428-1.984-0.856-2.958-1.284l0,0c-0.974-0.428-1.985-0.856-2.958-1.285l0,0
	c-1.013-0.427-1.985-0.855-2.958-1.284c-1.012-0.428-1.984-0.856-2.958-1.246l0,0c-1.013-0.428-1.985-0.855-2.996-1.284
	c-0.973-0.389-1.946-0.817-2.958-1.206l0,0c-0.973-0.429-1.946-0.856-2.959-1.246l0,0c-0.972-0.428-1.945-0.817-2.918-1.207l0,0
	c-1.012-0.428-1.985-0.817-2.958-1.207c-1.011-0.388-1.984-0.817-2.958-1.206l0,0c-0.973-0.389-1.985-0.778-2.958-1.168l0,0
	c-0.973-0.389-1.945-0.778-2.919-1.167l0,0c-1.011-0.39-1.985-0.778-2.958-1.168c-0.973-0.389-1.946-0.739-2.919-1.128l0,0
	c-1.012-0.389-1.985-0.779-2.958-1.128l0,0c-0.973-0.39-1.946-0.74-2.918-1.129l0,0c-0.973-0.388-1.946-0.739-2.919-1.089l0,0
	c-0.973-0.39-1.946-0.739-2.919-1.128l0,0c-0.973-0.351-1.946-0.701-2.919-1.089l0,0c-0.973-0.351-1.946-0.701-2.919-1.052l0,0
	c-0.934-0.35-1.907-0.7-2.88-1.05l0,0c-0.973-0.35-1.946-0.7-2.88-1.051l0,0c-0.973-0.35-1.946-0.7-2.919-1.051l0,0
	c-0.934-0.35-1.908-0.701-2.88-1.011c0.972,49.075,5.993,101.458,13.932,154.582c4.788,5.06,9.535,10.274,14.245,15.645
	c10.585,11.987,20.549,23.935,29.85,35.727v0.04c-9.652-12.183-19.575-24.091-29.85-35.767c-4.749-5.37-9.496-10.585-14.283-15.645
	c1.401,9.302,2.88,18.641,4.437,28.02c3.192,18.994,6.928,38.335,10.936,57.405C231.63,508.961,231.98,510.791,232.369,512.583
	L232.369,512.583z M344.687,712.114c1.011-0.973,14.478-13.933,34.13-35.298v-0.04c30.551-33.235,76.008-86.787,112.862-147.228
	c9.263-15.177,17.94-30.121,25.998-44.949c0.854-1.518,1.673-3.035,2.489-4.592c30.317-56.393,51.878-110.332,63.903-164.351h0.038
	c5.45-24.479,8.992-48.919,10.47-73.594c2.92-47.869-18.486-93.052-46.233-128.234l0,0c-27.438-34.792-61.101-59.817-83.558-67.913
	c0,0,33.859,20.315,63.086,61.88l20.472,6.033l-0.273-0.078l0,0l-0.313-0.079l0,0l-0.31-0.117l0,0l-0.312-0.078l0,0l-0.272-0.116
	h-0.038l-0.272-0.078l0,0l-0.313-0.078l0,0l-0.31-0.116l-0.312-0.078l0,0l-0.312-0.117l0,0l-0.311-0.078l0,0l-0.273-0.078l0,0
	l-0.311-0.117l0,0l-0.312-0.078l-0.312-0.117l0,0l-0.313-0.078l0,0l-0.311-0.078l0,0l-0.312-0.118l0,0l-0.312-0.078l0,0l-0.31-0.117
	l0,0l-0.313-0.078l-0.311-0.077l0,0l-0.351-0.117l0,0l-0.311-0.078l0,0l-0.311-0.117l0,0l-0.313-0.078l0,0l-0.312-0.117l0,0
	l-0.311-0.078l0,0l-0.312-0.078l0,0l-0.351-0.117l0,0l-0.312-0.078l0,0l-0.312-0.117l0,0l-0.311-0.079l0,0l-0.35-0.117l-0.313-0.078
	l-0.312-0.078l0,0l-0.312-0.116l0,0l-0.35-0.078l-0.312-0.117l-0.312-0.078l0,0l-0.351-0.117l0,0l-0.311-0.078l0,0l-0.351-0.117l0,0
	l-0.313-0.078l0,0l-0.311-0.078l-0.35-0.116l-0.312-0.078l-0.351-0.117l0,0l-0.312-0.078l0,0l-0.351-0.117l-0.311-0.078l0,0
	l-0.352-0.116l0,0l-0.311-0.078l-0.35-0.117l0,0l-0.35-0.078l0,0l-0.312-0.078l-0.352-0.117l-0.312-0.078l0,0l-0.35-0.117l0,0
	l-0.35-0.078l0,0l-0.313-0.117l0,0l-0.351-0.078l0,0l-0.35-0.117l0,0l-0.312-0.078c24.674,35.143,46.039,85.464,40.747,151.546
	c-1.556,19.654-4.436,38.917-8.328,57.793h-0.038c-11.365,55.146-31.369,106.246-52.656,149.99l0,0l0,0
	c-0.817,1.675-1.634,3.309-2.453,4.981c-24.05,48.569-49.387,87.604-65.343,112.2c-18.447,28.45-43.354,61.724-63.046,87.176v0.04
	C359.124,694.329,345.698,710.908,344.687,712.114L344.687,712.114z M321.297,713.321c19.031-19.732,35.298-37.207,50.087-54.836
	l0,0c26.036-30.979,47.48-62.347,71.297-106.829c13.076-24.519,30.007-57.91,46.157-95.894l2.14-5.021l0,0
	c16.853-40.28,32.614-85.386,41.915-130.413c-19.381,2.763-41.175,7.083-64.214,13.66l0,0
	c-4.165,26.347-10.158,53.161-17.436,79.781l-0.974,3.464c-23.389,84.413-58.999,166.218-87.176,222.571l0,0
	C343.13,679.773,326.861,706.937,321.297,713.321L321.297,713.321z M507.597,467.125L507.597,467.125L507.597,467.125z
	 M297.828,827.583h44.678l16.502-72.114H236.611l16.541,72.114H297.828z M487.865,97.483c-18.057-4.242-37.634-8.25-58.299-11.675
	c-37.01-58.182-83.556-74.723-85.814-75.462C393.606,20.348,448.557,51.093,487.865,97.483L487.865,97.483z M389.56,181.352
	c-58.923-14.05-120.803-45.106-168.827-73.321C268.757,136.246,330.637,167.341,389.56,181.352L389.56,181.352z M527.872,107.796
	L527.872,107.796L527.872,107.796z M532.854,320.328c-19.342,2.763-41.175,7.083-64.215,13.66
	c5.293-33.159,7.589-65.578,5.761-95.777c-4.203-68.963-22.885-117.96-44.834-152.402c20.627,3.425,40.242,7.433,58.299,11.675
	c28.839,34.014,49.231,76.513,52.891,125.316C543.051,253.934,539.742,287.13,532.854,320.328L532.854,320.328z M201.935,267.127
	L201.935,267.127L201.935,267.127z"/>
</svg>
