<?xml version="1.0" encoding="utf-8"?>
<!-- Generator: Adobe Illustrator 16.0.0, SVG Export Plug-In . SVG Version: 6.00 Build 0)  -->
<!DOCTYPE svg PUBLIC "-//W3C//DTD SVG 1.1//EN" "http://www.w3.org/Graphics/SVG/1.1/DTD/svg11.dtd">
<svg version="1.1" id="Camada_1" xmlns="http://www.w3.org/2000/svg" xmlns:xlink="http://www.w3.org/1999/xlink" x="0px" y="0px"
	 width="595.279px" height="841.89px" viewBox="0 0 595.279 841.89" enable-background="new 0 0 595.279 841.89"
	 xml:space="preserve">
<path fill="#00105C" d="M591.476,92.311c-2.754-3-6.623-4.71-10.696-4.71H14.5c-4.073,0-7.942,1.71-10.696,4.71
	c-2.753,3-4.101,7.029-3.739,11.073l51.016,571.425c0.536,5.97,4.696,10.999,10.464,12.651l232.038,66.278
	c1.29,0.361,2.637,0.552,3.971,0.552c1.333,0,2.681-0.19,3.971-0.552l232.239-66.278c5.769-1.65,9.928-6.682,10.465-12.651
	l50.988-571.425C595.577,99.34,594.214,95.311,591.476,92.311z M109.228,478.975l101.452,28.146V218.04h57.974v376.824
	l-159.426-44.22V478.975z M486.835,377.465l-15.276,177.542l-144.933,39.856V528.18l97.829-26.884l3.624-54.35l-101.453,17.478
	V218.04h173.919l-5,57.973H384.599v115.946L486.835,377.465z"/>
</svg>
