<?xml version="1.0" encoding="utf-8"?>
<!-- Generator: Adobe Illustrator 16.0.0, SVG Export Plug-In . SVG Version: 6.00 Build 0)  -->
<!DOCTYPE svg PUBLIC "-//W3C//DTD SVG 1.1//EN" "http://www.w3.org/Graphics/SVG/1.1/DTD/svg11.dtd">
<svg version="1.1" id="Camada_1" xmlns="http://www.w3.org/2000/svg" xmlns:xlink="http://www.w3.org/1999/xlink" x="0px" y="0px"
	 width="595.279px" height="841.89px" viewBox="0 0 595.279 841.89" enable-background="new 0 0 595.279 841.89"
	 xml:space="preserve">
<path fill="#00105C" d="M591.147,92.679c-2.75-2.997-6.615-4.705-10.684-4.705H14.817c-4.068,0-7.934,1.708-10.684,4.705
	c-2.75,2.997-4.097,7.021-3.735,11.061l50.958,570.785c0.536,5.969,4.69,10.987,10.452,12.638l231.778,66.204
	c1.288,0.361,2.635,0.547,3.966,0.547s2.676-0.186,3.967-0.547l231.979-66.204c5.763-1.65,9.917-6.674,10.453-12.638l50.931-570.786
	C595.243,99.7,593.88,95.676,591.147,92.679z M473.067,288.721l-41.234,71.42h36.631l-6.755,75.282H388.37L278.042,626.52
	l-70.159-23.586l96.712-167.511h-44.601l-11.582-75.282h99.648l41.232-71.42H126.806l-11.577-73.349H480.05L473.067,288.721z"/>
</svg>
