<?xml version="1.0" encoding="utf-8"?>
<!DOCTYPE svg PUBLIC "-//W3C//DTD SVG 1.1//EN" "http://www.w3.org/Graphics/SVG/1.1/DTD/svg11.dtd">
<svg version="1.1" id="Camada_1" xmlns="http://www.w3.org/2000/svg" xmlns:xlink="http://www.w3.org/1999/xlink" x="0px" y="0px"
	viewBox="0 0 250 250" enable-background="new 0 0 250 250" xml:space="preserve">
<path d="M226.37,11.625C225.42,10.59,224.085,10,222.68,10H27.32c-1.405,0-2.74,0.59-3.69,1.625
	c-0.95,1.035-1.415,2.425-1.29,3.82l17.6,197.135c0.185,2.061,1.62,3.795,3.61,4.365l80.05,22.865
	c0.445,0.125,0.91,0.189,1.37,0.189c0.46,0,0.924-0.064,1.37-0.189l80.12-22.865c1.99-0.57,3.425-2.305,3.61-4.365l17.59-197.135
	C227.785,14.05,227.314,12.66,226.37,11.625z M185.588,79.333L171.347,104h12.651l-2.333,26h-25.329l-38.105,66L94,187.854
	L127.402,130h-15.404l-4-26h34.416l14.241-24.667H65.998L62,54h126L185.588,79.333z" fill="#00105C" />
</svg>
